<svg xmlns="http://www.w3.org/2000/svg" xmlns:xlink="http://www.w3.org/1999/xlink" width="35" height="35" viewBox="0 0 35 35">
  <defs>
    <linearGradient id="linear-gradient" x1="0.05" y1="0.035" x2="1.157" y2="1.336" gradientUnits="objectBoundingBox">
      <stop offset="0" stop-color="#1fd1f9"/>
      <stop offset="1" stop-color="#b621fe"/>
    </linearGradient>
  </defs>
  <g id="Gruppe_3265" data-name="Gruppe 3265" transform="translate(-1024 -730)">
    <circle id="Ellipse_247" data-name="Ellipse 247" cx="17.5" cy="17.5" r="17.5" transform="translate(1024 730)" fill="url(#linear-gradient)"/>
    <g id="Gruppe_15" data-name="Gruppe 15" transform="translate(776.594 -105.939)">
      <g id="CoinGecko-WhiteText" transform="translate(255.52 844.052)">
        <g id="Coin_Gecko_AI" data-name="Coin Gecko AI" transform="translate(0 0)">
          <path id="Pfad_19" data-name="Pfad 19" d="M52.775,54.954a9.387,9.387,0,1,1-9.428-9.345A9.387,9.387,0,0,1,52.775,54.954Z" transform="translate(-34.001 -45.609)" fill="#8dc63f"/>
          <path id="Pfad_20" data-name="Pfad 20" d="M61.789,64.658A8.7,8.7,0,1,1,53.051,56,8.7,8.7,0,0,1,61.789,64.658Z" transform="translate(-43.702 -55.309)" fill="#f9e988"/>
          <path id="Pfad_21" data-name="Pfad 21" d="M174.341,63.262a4.657,4.657,0,0,1,1.628,0,4.954,4.954,0,0,1,1.555.521,9.035,9.035,0,0,1,1.316.964c.415.338.829.683,1.222,1.062a6.2,6.2,0,0,1,1.042,1.261,7.173,7.173,0,0,1,.73,1.471,6.7,6.7,0,0,1,.3,3.226h-.052a14.864,14.864,0,0,0-.8-3.027,11.81,11.81,0,0,0-.626-1.41,13.852,13.852,0,0,0-.824-1.323,4.8,4.8,0,0,0-1.1-1.115,6.432,6.432,0,0,0-1.4-.693c-.478-.188-.953-.384-1.452-.527s-1.006-.251-1.536-.355Z" transform="translate(-164.569 -62.023)" fill="#fff"/>
          <path id="Pfad_22" data-name="Pfad 22" d="M80,114.662c-.635-.178-1.294-.43-1.96-.685a1.3,1.3,0,0,0-.486-.61,2.434,2.434,0,0,0-1.961-.194,5.054,5.054,0,0,0-2.291-.066c-6.053,1.613-2.621,5.549-4.843,9.505a8.833,8.833,0,0,0,8.655,3.419s-1.687-3.921,2.119-5.8C82.322,118.7,84.552,115.861,80,114.662Z" transform="translate(-66.173 -108.072)" fill="#8bc53f"/>
          <path id="Pfad_23" data-name="Pfad 23" d="M237.65,171.843a.355.355,0,1,1-.357-.353A.355.355,0,0,1,237.65,171.843Z" transform="translate(-223.123 -162.919)" fill="#fff"/>
          <path id="Pfad_24" data-name="Pfad 24" d="M172.48,113.631a8.758,8.758,0,0,1,2.368.8C174.516,113.473,173.4,113.345,172.48,113.631Z" transform="translate(-163.026 -108.873)" fill="#009345"/>
          <path id="Pfad_25" data-name="Pfad 25" d="M132.515,129.157a1.638,1.638,0,1,1-1.637-1.637A1.638,1.638,0,0,1,132.515,129.157Z" transform="translate(-122.727 -121.919)" fill="#fff"/>
          <path id="Pfad_26" data-name="Pfad 26" d="M138.864,136.2a1.152,1.152,0,1,1-1.152-1.152A1.152,1.152,0,0,1,138.864,136.2Z" transform="translate(-129.559 -128.945)" fill="#58595b"/>
          <path id="Pfad_27" data-name="Pfad 27" d="M80.81,177.56a8.664,8.664,0,0,1-5.148,1.644c-1.037,0-1.247-1.062-1.932-.543a4.987,4.987,0,0,1-2.589.826,3.2,3.2,0,0,1-3.04-2.648,14.56,14.56,0,0,1-1.061,5.268,8.7,8.7,0,0,0,8.761,3.517c-.367-2.478,1.873-4.906,3.136-6.148a16.3,16.3,0,0,0,1.873-1.918Z" transform="translate(-64.848 -167.673)" fill="#8bc53f"/>
          <path id="Pfad_28" data-name="Pfad 28" d="M179.788,188.321a5.938,5.938,0,0,1-1.4.9,8.909,8.909,0,0,1-1.573.573,4.941,4.941,0,0,1-1.678.194,2.3,2.3,0,0,1-1.536-.675l.018-.021a2.926,2.926,0,0,0,1.534.423,7.206,7.206,0,0,0,1.612-.133,8.785,8.785,0,0,0,1.567-.484,5.832,5.832,0,0,0,1.439-.8Z" transform="translate(-163.986 -178.57)" fill="#58595b"/>
        </g>
      </g>
    </g>
  </g>
</svg>
