<svg xmlns="http://www.w3.org/2000/svg" xmlns:xlink="http://www.w3.org/1999/xlink" width="35" height="35" viewBox="0 0 35 35">
  <defs>
    <linearGradient id="linear-gradient" x1="0.05" y1="0.035" x2="1.157" y2="1.336" gradientUnits="objectBoundingBox">
      <stop offset="0" stop-color="#1fd1f9"/>
      <stop offset="1" stop-color="#b621fe"/>
    </linearGradient>
    <clipPath id="clip-path">
      <rect id="Rechteck_2299" data-name="Rechteck 2299" width="21" height="16" transform="translate(0 -0.015)" fill="#fff"/>
    </clipPath>
  </defs>
  <g id="Gruppe_3260" data-name="Gruppe 3260" transform="translate(-819 -730)">
    <circle id="Ellipse_242" data-name="Ellipse 242" cx="17.5" cy="17.5" r="17.5" transform="translate(819 730)" fill="url(#linear-gradient)"/>
    <g id="Discord-Logo-White" transform="translate(826 740.014)" clip-path="url(#clip-path)">
      <path id="Pfad_6569" data-name="Pfad 6569" d="M17.9,1.748A17.438,17.438,0,0,0,13.6.413a.065.065,0,0,0-.069.033,12.147,12.147,0,0,0-.536,1.1,16.1,16.1,0,0,0-4.834,0,11.141,11.141,0,0,0-.544-1.1A.068.068,0,0,0,7.544.413a17.389,17.389,0,0,0-4.3,1.335.062.062,0,0,0-.028.024A17.847,17.847,0,0,0,.087,13.808a.073.073,0,0,0,.028.049A17.535,17.535,0,0,0,5.4,16.527a.068.068,0,0,0,.074-.024,12.533,12.533,0,0,0,1.08-1.757.067.067,0,0,0-.037-.093,11.548,11.548,0,0,1-1.65-.786.068.068,0,0,1-.007-.112c.111-.083.222-.169.328-.257a.065.065,0,0,1,.068-.009,12.505,12.505,0,0,0,10.627,0,.065.065,0,0,1,.069.008c.106.087.217.175.328.258a.068.068,0,0,1-.006.112,10.836,10.836,0,0,1-1.65.785.067.067,0,0,0-.036.094A14.072,14.072,0,0,0,15.665,16.5a.067.067,0,0,0,.074.025,17.477,17.477,0,0,0,5.289-2.669.068.068,0,0,0,.028-.049A17.73,17.73,0,0,0,17.928,1.773.054.054,0,0,0,17.9,1.748ZM7.066,11.406a2.032,2.032,0,0,1-1.9-2.131,2.021,2.021,0,0,1,1.9-2.131,2.01,2.01,0,0,1,1.9,2.131A2.021,2.021,0,0,1,7.066,11.406Zm7.026,0a2.032,2.032,0,0,1-1.9-2.131,2.021,2.021,0,0,1,1.9-2.131,2.01,2.01,0,0,1,1.9,2.131A2.016,2.016,0,0,1,14.093,11.406Z" transform="translate(0 -0.186)" fill="#fff"/>
    </g>
  </g>
</svg>
